PathFileType	4	(X/Y/Z)	C:\Users\86182\Documents\cortex\Trimmed_M4_H2.trc
DataRate	CameraRate	NumFrames	NumMarkers	Units	OrigDataRate	OrigDataStartFrame	OrigNumFrames
100.00	100.00	       56	2	mm	100.00	181	       901
Frame#	Time	gripper			box			
		X1	Y1	Z1	X2	Y2	Z2	

181	1.800	278.58267	149.73680	219.95384	280.09842	146.85468	84.71897	
182	1.810	278.60703	149.73213	220.37708	280.03619	146.79411	85.16568	
183	1.820	278.59903	149.73676	220.82063	279.95639	146.71881	85.62823	
184	1.830	278.56500	149.74899	221.28223	279.85583	146.62959	86.10574	
185	1.840	278.51514	149.76657	221.75435	279.73837	146.53253	86.59284	
186	1.850	278.48230	149.78276	222.21884	279.62396	146.44342	87.07986	
187	1.860	278.50159	149.78996	222.65822	279.54385	146.38431	87.55624	
188	1.870	278.57126	149.78740	223.07173	279.51392	146.36545	88.01665	
189	1.880	278.65445	149.78116	223.47351	279.51947	146.37560	88.46216	
190	1.890	278.71985	149.77654	223.87552	279.54282	146.40161	88.89236	
191	1.900	278.76141	149.77477	224.27971	279.58826	146.44630	89.30190	
192	1.910	278.77921	149.77737	224.68718	279.66327	146.51418	89.68949	
193	1.920	278.76648	149.78728	225.10423	279.75449	146.59383	90.06491	
194	1.930	278.73206	149.80238	225.53214	279.83905	146.66678	90.44212	
195	1.940	278.71701	149.81268	225.95767	279.90393	146.72256	90.82964	
196	1.950	278.76248	149.80940	226.36514	279.94580	146.76031	91.22891	
197	1.960	278.86063	149.79565	226.75742	279.96442	146.78476	91.63867	
198	1.970	278.95682	149.78412	227.15553	279.96017	146.80292	92.05925	
199	1.980	279.00131	149.78511	227.57765	279.93527	146.82095	92.49211	
200	1.990	278.97739	149.80122	228.02858	279.89633	146.84224	92.93605	
201	2.000	278.87512	149.83395	228.51080	279.85349	146.86743	93.38521	
202	2.010	278.66882	149.88884	229.03271	279.81595	146.89481	93.83131	
203	2.020	278.34659	149.96866	229.59671	279.78958	146.92076	94.26775	
204	2.030	277.94577	150.06538	230.18655	279.77963	146.94139	94.69041	
205	2.040	277.53696	150.16380	230.77377	279.79459	146.95454	95.09554	
206	2.050	277.17880	150.25160	231.33386	279.84464	146.96002	95.47958	
207	2.060	276.89767	150.32385	231.85504	279.93402	146.95807	95.84157	
208	2.070	276.69644	150.38058	232.33681	280.05255	146.94916	96.18567	
209	2.080	276.56595	150.42369	232.78522	280.17004	146.93669	96.52507	
210	2.090	276.49158	150.45549	233.20923	280.24576	146.92805	96.88117	
211	2.100	276.45840	150.47784	233.61844	280.26260	146.92891	97.26672	
212	2.110	276.45422	150.49223	234.02150	280.24701	146.93738	97.67294	
213	2.120	276.46930	150.50058	234.42465	280.23816	146.94717	98.08348	
214	2.130	276.49493	150.50525	234.83218	280.24734	146.95448	98.49496	
215	2.140	276.52408	150.50809	235.24774	280.25735	146.96106	98.91788	
216	2.150	276.55273	150.51030	235.67389	280.25726	146.97102	99.35799	
217	2.160	276.58014	150.51338	236.11089	280.26501	146.98518	99.80389	
218	2.170	276.60687	150.51933	236.55740	280.30457	147.00073	100.24027	
219	2.180	276.63263	150.52991	237.01172	280.37213	147.01572	100.66621	
220	2.190	276.65598	150.54610	237.47134	280.43652	147.03178	101.09456	
221	2.200	276.67554	150.56821	237.93286	280.47351	147.05132	101.53445	
222	2.210	276.68979	150.59555	238.39279	280.48785	147.07408	101.98123	
223	2.220	276.69656	150.62627	238.84813	280.48752	147.09982	102.42979	
224	2.230	276.69510	150.65788	239.29631	280.45956	147.13063	102.88481	
225	2.240	276.68723	150.68819	239.73639	280.39700	147.16646	103.34627	
226	2.250	276.67456	150.71588	240.16902	280.32523	147.20131	103.79929	
227	2.260	276.65649	150.74028	240.59500	280.27704	147.22748	104.23025	
228	2.270	276.63245	150.76059	241.01486	280.25357	147.24313	104.64444	
229	2.280	276.60321	150.77551	241.42984	280.22433	147.25432	105.06133	
230	2.290	276.56961	150.78419	241.84204	280.16806	147.26770	105.49154	
231	2.300	276.53259	150.78664	242.25365	280.10129	147.28288	105.92467	
232	2.310	276.49405	150.78258	242.66679	280.05408	147.29510	106.34579	
233	2.320	276.45667	150.77115	243.08354	280.03204	147.30310	106.75654	
234	2.330	276.42227	150.75238	243.50549	280.01578	147.31068	107.17337	
235	2.340	276.39151	150.72823	243.93402	279.99554	147.32076	107.60567	
236	2.350	276.36459	150.70190	244.37038	279.99298	147.33003	108.04094	
